<svg preserveAspectRatio="xMidYMid meet" viewBox="0 0 74.0056 12.3279" fill="none" xmlns="http://www.w3.org/2000/svg">
<g id="Group 1073718261">
<path id="Vector" d="M67.8901 9.79469C66.3032 9.79469 64.8914 8.64471 64.5296 7.05682H73.9541C73.9541 7.05682 74.0056 6.48088 74.0056 6.27716C74.0035 4.65636 73.3588 3.10253 72.2127 1.95645C71.0666 0.81037 69.5128 0.165618 67.892 0.163602C66.2714 0.165869 64.7178 0.810733 63.5719 1.95678C62.426 3.10283 61.7814 4.65653 61.7794 6.27716C61.7794 9.64904 64.5058 12.3279 67.892 12.3279C71.2782 12.3279 73.2554 9.83372 73.7485 8.02688H70.8755C70.8755 8.02688 69.9616 9.79469 67.8901 9.79469ZM67.892 2.69489C69.4151 2.69489 70.7355 3.70017 71.1887 5.19858H64.5963C65.0466 3.70017 66.3688 2.69489 67.892 2.69489ZM31.9218 12.3279C28.5518 12.3279 25.9072 9.61382 25.9072 6.27716C25.9072 2.9405 28.6489 0.163602 32.0198 0.163602C35.3908 0.163602 38.1334 3.0138 38.1334 6.24479V12.0242H35.7611V10.0955L35.5878 10.0498C35.1699 11.0751 33.6544 12.3279 31.9218 12.3279ZM32.0198 2.69489C30.1159 2.69489 28.567 4.2942 28.567 6.25907C28.567 8.22394 30.1159 9.79564 32.0198 9.79564C33.9238 9.79564 35.4736 8.20871 35.4736 6.25907C35.4736 4.30753 33.9247 2.69489 32.0198 2.69489ZM44.9057 12.3279C41.5357 12.3279 38.8912 9.61382 38.8912 6.27716C38.8912 2.9405 41.6328 0.163602 45.0038 0.163602C48.3747 0.163602 51.1173 3.0138 51.1173 6.24479V12.0242H48.7441V10.0955L48.5708 10.0498C48.1529 11.0751 46.6383 12.3279 44.9057 12.3279ZM45.0038 2.69489C43.0998 2.69489 41.551 4.2942 41.551 6.25907C41.551 8.22394 43.0998 9.79564 45.0038 9.79564C46.9077 9.79564 48.4575 8.20871 48.4575 6.25907C48.4575 4.30753 46.9087 2.69489 45.0038 2.69489ZM55.1013 12.0233L50.2301 0.467281H52.8956L56.4655 8.97885L60.0354 0.467281H62.7009L57.8297 12.0223L55.1013 12.0233ZM8.66227 12.3098C9.2989 12.3098 9.90945 12.0569 10.3596 11.6067C10.8098 11.1566 11.0627 10.546 11.0627 9.9094C11.0627 9.27278 10.8098 8.66223 10.3596 8.21207C9.90945 7.76191 9.2989 7.50901 8.66227 7.50901C8.02565 7.50901 7.4151 7.76191 6.96494 8.21207C6.51478 8.66223 6.26188 9.27278 6.26188 9.9094C6.26188 10.546 6.51478 11.1566 6.96494 11.6067C7.4151 12.0569 8.02565 12.3098 8.66227 12.3098ZM14.9358 12.3098C15.5724 12.3098 16.1829 12.0569 16.6331 11.6067C17.0833 11.1566 17.3362 10.546 17.3362 9.9094C17.3362 9.27278 17.0833 8.66223 16.6331 8.21207C16.1829 7.76191 15.5724 7.50901 14.9358 7.50901C14.2991 7.50901 13.6886 7.76191 13.2384 8.21207C12.7883 8.66223 12.5354 9.27278 12.5354 9.9094C12.5354 10.546 12.7883 11.1566 13.2384 11.6067C13.6886 12.0569 14.2991 12.3098 14.9358 12.3098Z" fill="#6C6C6C"/>
<path id="Vector_2" d="M11.7987 2.32087e-06C5.2825 2.32087e-06 -0.000936584 5.38625 1.53874e-05 12.0253H3.01396C3.01396 7.04935 6.91704 3.01489 11.7987 3.01489C16.6824 3.01489 20.5835 7.04935 20.5835 12.0253H23.5975C23.5984 5.3853 18.315 2.32087e-06 11.7987 2.32087e-06Z" fill="#6C6C6C"/>
</g>
</svg>
