<svg preserveAspectRatio="xMidYMid meet" viewBox="0 0 43.9995 43.9995" fill="none" xmlns="http://www.w3.org/2000/svg">
<path id="Subtract" d="M6.44357 6.44357C15.0351 -2.14791 28.9643 -2.14781 37.5559 6.44357C46.1474 15.0351 46.1474 28.9643 37.5559 37.5559C28.9643 46.1474 15.0351 46.1474 6.44357 37.5559C-2.14781 28.9643 -2.14791 15.0351 6.44357 6.44357ZM11.0002 20.6252C9.86113 20.6252 8.93771 21.5486 8.93771 22.6877V29.5627C8.93789 30.7016 9.86124 31.6252 11.0002 31.6252C12.139 31.625 13.0625 30.7015 13.0627 29.5627V22.6877C13.0627 21.5487 12.1391 20.6254 11.0002 20.6252ZM17.8752 16.9582C16.7362 16.9582 15.8128 17.8817 15.8127 19.0207V29.5627C15.813 30.7016 16.7363 31.6252 17.8752 31.6252C19.014 31.625 19.9375 30.7015 19.9377 29.5627V19.0207C19.9376 17.8818 19.0141 16.9584 17.8752 16.9582ZM24.7502 13.2922C23.6111 13.2922 22.6877 14.2156 22.6877 15.3547V29.5627C22.6879 30.7016 23.6112 31.6252 24.7502 31.6252C25.889 31.625 26.8125 30.7015 26.8127 29.5627V15.3547C26.8127 14.2157 25.8891 13.2924 24.7502 13.2922ZM31.6252 9.62521C30.4861 9.62521 29.5627 10.5486 29.5627 11.6877V29.5627C29.5629 30.7016 30.4862 31.6252 31.6252 31.6252C32.764 31.625 33.6875 30.7015 33.6877 29.5627V11.6877C33.6877 10.5487 32.7641 9.62539 31.6252 9.62521Z" fill="#008500"/>
</svg>
