<svg preserveAspectRatio="xMidYMid meet" viewBox="0 0 48 48" fill="none" xmlns="http://www.w3.org/2000/svg">
<g id="App Store">
<rect width="48" height="48" rx="6" fill="#EDEDED"/>
<path id="Vector" d="M27.6254 17.8408C27.1542 17.8382 26.686 17.9166 26.2409 18.0725C25.8449 18.2057 25.4549 18.3565 25.0722 18.5245C24.7247 18.6796 24.42 18.7571 24.1579 18.7571C23.8865 18.7571 23.5818 18.684 23.2437 18.5378C22.8929 18.3836 22.5371 18.2414 22.1768 18.1114C21.7871 17.9635 21.3736 17.8892 20.9572 17.8921C20.1441 17.8921 19.3565 18.12 18.5943 18.5757C17.8409 19.0239 17.223 19.6911 16.7404 20.5774C16.2566 21.4548 16.015 22.5433 16.0156 23.8429C16.0156 25.0564 16.2148 26.2614 16.6132 27.4578C17.0197 28.6447 17.5067 29.6516 18.0741 30.4783C18.5116 31.1083 18.9909 31.7079 19.5086 32.2729C19.9754 32.7718 20.5173 33.0212 21.1344 33.0212C21.5415 33.0212 21.8931 32.9522 22.189 32.8142C22.4938 32.6775 22.8114 32.5401 23.1419 32.4021C23.4806 32.2635 23.8997 32.1944 24.3992 32.1951C24.9157 32.1951 25.3263 32.2641 25.6311 32.4021C25.9364 32.5306 26.233 32.6638 26.5208 32.8018C26.8086 32.931 27.1768 32.9956 27.6254 32.9956C28.2946 32.9956 28.8661 32.7373 29.3398 32.2207C29.823 31.7042 30.272 31.1405 30.6867 30.5296C31.1604 29.8244 31.4991 29.1834 31.7027 28.6067C31.9144 28.0301 32.0244 27.7243 32.0326 27.6895L31.6009 27.4578C31.3383 27.3109 31.0335 27.0827 30.6867 26.7732C30.3474 26.4548 30.0467 26.0373 29.7847 25.5207C29.5308 25.0048 29.4039 24.3768 29.4039 23.6368C29.4039 22.9911 29.5054 22.436 29.7084 21.9713C29.9119 21.4978 30.1491 21.1104 30.4199 20.8091C30.6908 20.4989 30.9361 20.2666 31.156 20.1121C31.376 19.9488 31.4988 19.8541 31.5246 19.8282C31.0847 19.1825 30.5937 18.7223 30.0514 18.4475C29.518 18.1627 29.0269 17.9905 28.5783 17.931C28.2626 17.8829 27.9445 17.8528 27.6254 17.8408ZM26.927 16.2009C27.238 15.81 27.4905 15.3752 27.6763 14.9105C27.8711 14.4199 27.9685 13.9163 27.9685 13.3998C27.9685 13.2447 27.9556 13.1114 27.9298 13C27.4391 13.0171 26.9226 13.1674 26.3804 13.451C25.8653 13.7145 25.4077 14.079 25.0345 14.5231C24.7542 14.8409 24.5045 15.2454 24.2852 15.7366C24.0668 16.2051 23.9538 16.7164 23.9544 17.234C23.9544 17.3113 23.9588 17.3844 23.9676 17.4534C23.9725 17.5011 23.981 17.5484 23.993 17.5949C24.0778 17.6119 24.1667 17.6205 24.2597 17.6205C24.7084 17.6205 25.1824 17.4872 25.682 17.2207C26.1815 16.9454 26.5965 16.6054 26.927 16.2009Z" fill="#131313"/>
</g>
</svg>
