<svg preserveAspectRatio="xMidYMid meet" viewBox="0 0 18 18.9199" fill="none" xmlns="http://www.w3.org/2000/svg">
<g id="Icon">
<path id="Vector" d="M12.0629 4.09097C11.6616 4.08879 11.2629 4.15501 10.8838 4.28677C10.5466 4.39934 10.2145 4.52679 9.88851 4.66875C9.5926 4.79982 9.33307 4.86535 9.10993 4.86535C8.87877 4.86535 8.61924 4.80356 8.33136 4.67998C8.03264 4.54967 7.7296 4.4295 7.42275 4.31968C7.09085 4.19468 6.73877 4.13185 6.38411 4.13431C5.69169 4.13431 5.02093 4.3269 4.37185 4.71208C3.73026 5.09085 3.20399 5.65471 2.79303 6.40368C2.38099 7.14516 2.17525 8.06505 2.17578 9.16336C2.17578 10.1889 2.34541 11.2072 2.68467 12.2184C3.03088 13.2214 3.44558 14.0723 3.92878 14.771C4.30141 15.3034 4.70955 15.8102 5.15043 16.2877C5.54801 16.7092 6.00954 16.92 6.53501 16.92C6.88176 16.92 7.18115 16.8617 7.43318 16.7451C7.69271 16.6295 7.9632 16.5134 8.24467 16.3968C8.53309 16.2796 8.89 16.2213 9.31541 16.2219C9.75527 16.2219 10.105 16.2802 10.3645 16.3968C10.6245 16.5054 10.8771 16.618 11.1222 16.7346C11.3673 16.8438 11.6808 16.8983 12.0629 16.8983C12.6328 16.8983 13.1195 16.6801 13.5229 16.2435C13.9344 15.807 14.3168 15.3306 14.6699 14.8143C15.0734 14.2184 15.3618 13.6767 15.5352 13.1893C15.7155 12.702 15.8092 12.4436 15.8161 12.4142L15.4485 12.2184C15.2248 12.0942 14.9653 11.9014 14.6699 11.6398C14.381 11.3707 14.1249 11.0179 13.9018 10.5813C13.6856 10.1453 13.5775 9.61462 13.5775 8.98923C13.5775 8.44355 13.6639 7.97437 13.8368 7.5817C14.0101 7.18154 14.2122 6.85413 14.4428 6.59948C14.6734 6.33734 14.8824 6.14101 15.0697 6.01047C15.2569 5.87245 15.3616 5.79247 15.3835 5.77053C15.0089 5.22486 14.5907 4.83593 14.1289 4.60375C13.6746 4.36301 13.2565 4.2175 12.8744 4.16721C12.6055 4.12655 12.3346 4.1011 12.0629 4.09097ZM11.4681 2.70511C11.733 2.37472 11.948 2.00729 12.1062 1.61456C12.2721 1.19995 12.3551 0.77438 12.3551 0.337838C12.3551 0.206769 12.3441 0.094156 12.3222 0C11.9042 0.0144444 11.4644 0.141502 11.0026 0.381171C10.564 0.603816 10.1743 0.911841 9.8564 1.28716C9.61775 1.55571 9.40504 1.89757 9.21829 2.31271C9.03228 2.70864 8.93608 3.14077 8.93656 3.5782C8.93656 3.64346 8.9403 3.70525 8.9478 3.76357C8.95199 3.80391 8.95923 3.84388 8.96947 3.88313C9.04171 3.89758 9.11742 3.9048 9.19662 3.9048C9.57868 3.9048 9.98242 3.79219 10.4078 3.56696C10.8332 3.33425 11.1867 3.04696 11.4681 2.70511Z" fill="#EDEDED"/>
</g>
</svg>
