<svg preserveAspectRatio="xMidYMid meet" viewBox="0 0 94.8664 20.5999" fill="none" xmlns="http://www.w3.org/2000/svg">
<path id="Vector" fill-rule="evenodd" clip-rule="evenodd" d="M92.9067 12.2427C92.9067 11.0493 92.1976 10.1504 91.0773 10.1504C89.957 10.1504 89.2491 11.0493 89.2491 12.2427C89.2491 13.436 89.9593 14.3361 91.0773 14.3361C92.1999 14.3383 92.9067 13.4394 92.9067 12.2427ZM92.8527 9.34916V6.22193C92.8527 6.01517 92.9921 5.83538 93.1932 5.78369L94.8664 5.34096V15.925H93.0101V15.026C92.5437 15.7003 91.7055 16.0947 90.6571 16.0947C88.5029 16.0947 87.241 14.381 87.241 12.2449C87.241 10.1099 88.5029 8.39627 90.6571 8.39627C91.7021 8.39403 92.4696 8.8435 92.8527 9.34916ZM81.4327 8.56258V9.46041C81.7732 8.82665 82.5384 8.39178 83.6441 8.39178C85.4297 8.39178 86.3792 9.57165 86.3792 11.328V15.9239H84.3666V11.555C84.3666 10.6976 83.9981 10.1077 83.1047 10.1077C82.1271 10.1077 81.59 10.7246 81.59 11.71V15.9239H79.5786V8.56258H81.4327ZM74.8748 16.0947C72.7061 16.0947 71.5004 15.1665 71.5004 12.7787V8.56146H73.5118V12.8056C73.5118 13.8316 73.9793 14.308 74.8715 14.308C75.7648 14.308 76.2311 13.8293 76.2311 12.8056V8.56146H78.2425V12.7764C78.2482 15.1665 77.0424 16.0947 74.8748 16.0947ZM64.8571 12.2427C64.8571 13.5641 65.6797 14.3361 66.7416 14.3361C67.8034 14.3361 68.6249 13.5608 68.6249 12.2427C68.6249 10.9246 67.8046 10.1504 66.7416 10.1504C65.6808 10.1504 64.8571 10.9223 64.8571 12.2427ZM66.7438 16.0947C64.3627 16.0947 62.8446 14.3383 62.8446 12.2449C62.8446 10.1526 64.3616 8.39627 66.7438 8.39627C69.1238 8.39627 70.6419 10.1526 70.6419 12.2449C70.6396 14.3383 69.126 16.0947 66.7438 16.0947ZM56.7126 12.2427C56.7126 13.4371 57.4228 14.3361 58.542 14.3361C59.6612 14.3361 60.3714 13.4371 60.3714 12.2427C60.3714 11.0482 59.6612 10.1504 58.542 10.1504C57.4228 10.1504 56.7126 11.0493 56.7126 12.2427ZM56.7699 15.1395V18.2016C56.7704 18.3022 56.7371 18.4001 56.6754 18.4795C56.6137 18.559 56.5271 18.6154 56.4295 18.6398L54.7585 19.0747V8.56146H56.6149V9.46041C57.0812 8.78619 57.9183 8.39178 58.9679 8.39178C61.122 8.39178 62.3839 10.1054 62.3839 12.2404C62.3839 14.3766 61.122 16.0902 58.9679 16.0902C57.9172 16.0947 57.152 15.6452 56.7699 15.1395ZM48.7816 11.737V15.925H46.7702V11.555C46.7702 10.7403 46.4724 10.1077 45.5791 10.1077C44.6431 10.1077 44.1329 10.7111 44.1329 11.6966V15.9272H42.1215V8.56146H43.9767V9.46041C44.3183 8.82665 45.0555 8.39178 46.1174 8.39178C47.1242 8.39178 47.8456 8.78507 48.2715 9.43119C48.9232 8.71315 49.675 8.39178 50.7368 8.39178C52.5224 8.39178 53.4281 9.61435 53.4281 11.328V15.9239H51.4167V11.555C51.4167 10.7403 51.1189 10.1077 50.2256 10.1077C49.2761 10.1077 48.7816 10.7111 48.7816 11.737ZM35.4075 12.2427C35.4075 13.5641 36.2278 14.3361 37.2908 14.3361C38.3527 14.3361 39.1752 13.5608 39.1752 12.2427C39.1752 10.9246 38.3515 10.1504 37.2908 10.1504C36.23 10.1504 35.4075 10.9223 35.4075 12.2427ZM37.2908 16.0947C34.9097 16.0947 33.3916 14.3383 33.3916 12.2449C33.3916 10.1526 34.9086 8.39627 37.2908 8.39627C39.673 8.39627 41.19 10.1526 41.19 12.2449C41.19 14.3383 39.6719 16.0947 37.2908 16.0947ZM22.9525 10.9223C22.9525 7.80297 25.1201 5.73538 28.0113 5.73538C30.5194 5.73538 32.505 7.21078 32.887 9.64245H30.6756C30.3778 8.39178 29.3564 7.68723 28.0113 7.68723C26.1685 7.68723 25.1347 8.9525 25.1347 10.9201C25.1347 12.8877 26.1685 14.1518 28.0113 14.1518C29.3575 14.1518 30.3778 13.4484 30.6745 12.1966H32.887C32.505 14.6283 30.5194 16.1037 28.0102 16.1037C25.1201 16.1082 22.9525 14.0428 22.9525 10.9223ZM0.823669 16.0542C0.572203 15.8995 0.364505 15.683 0.220335 15.4254C0.076164 15.1677 0.000315325 14.8774 4.34526e-06 14.5822V11.2313C-0.000435632 11.105 0.032544 10.9807 0.0956008 10.8712C0.158658 10.7616 0.24955 10.6707 0.359067 10.6076C0.468584 10.5445 0.592831 10.5115 0.719218 10.5119C0.845605 10.5123 0.969638 10.5462 1.07875 10.6099L8.61421 15.0193C9.0547 15.2778 9.32551 15.7497 9.32551 16.2621V19.7343C9.32678 19.8878 9.28686 20.0389 9.20991 20.1717C9.13296 20.3046 9.02179 20.4144 8.88799 20.4896C8.75418 20.5649 8.60264 20.6029 8.44915 20.5997C8.29566 20.5965 8.14583 20.5522 8.01528 20.4714L0.823669 16.0542ZM12.0549 9.69189C12.4954 9.95034 12.7662 10.4223 12.7662 10.9358V17.9802C12.7662 18.1892 12.6539 18.3814 12.4741 18.4814L10.8245 19.4141C10.8034 19.4254 10.7812 19.4344 10.7582 19.441V15.5306C10.7582 15.0238 10.4941 14.5541 10.0604 14.2934L3.44299 10.3189V5.90281C3.44363 5.77688 3.47733 5.65332 3.54071 5.54451C3.60409 5.43569 3.69493 5.34542 3.80415 5.28273C3.91337 5.22005 4.03713 5.18714 4.16306 5.1873C4.28899 5.18746 4.41267 5.22069 4.52173 5.28365L12.0549 9.69189ZM15.3519 4.4892C15.7946 4.74541 16.0665 5.22185 16.0665 5.73425V16.025C16.0665 16.2351 15.9497 16.4295 15.7654 16.5307L14.2023 17.3779V10.2144C14.2023 9.70874 13.9371 9.24129 13.5056 8.97947L6.74327 4.90722V0.719225C6.74286 0.593074 6.77575 0.46905 6.83861 0.359677C6.90147 0.250303 6.99208 0.159453 7.10128 0.0963004C7.21049 0.0331481 7.33443 -7.01385e-05 7.46058 1.11191e-07C7.58673 7.03609e-05 7.71063 0.0334267 7.81976 0.0967006L15.3519 4.4892Z" fill="#6C6C6C"/>
</svg>
