<svg preserveAspectRatio="xMidYMid meet" viewBox="0 0 15.9996 15.9996" fill="none" xmlns="http://www.w3.org/2000/svg">
<path id="MainIco/Earn" d="M2.34304 2.34304C5.46714 -0.781066 10.5323 -0.780959 13.6565 2.34304C16.7807 5.4672 16.7807 10.5324 13.6565 13.6565C10.5324 16.7807 5.4672 16.7807 2.34304 13.6565C-0.780959 10.5323 -0.781066 5.46714 2.34304 2.34304ZM4.00026 7.50026C3.58606 7.50026 3.25026 7.83606 3.25026 8.25026V10.7503C3.25046 11.1643 3.58618 11.5003 4.00026 11.5003C4.41423 11.5001 4.75007 11.1642 4.75026 10.7503V8.25026C4.75026 7.83615 4.41434 7.50042 4.00026 7.50026ZM6.50026 6.16628C6.08615 6.16628 5.75043 6.50221 5.75026 6.91628V10.7503C5.75048 11.1643 6.08619 11.5003 6.50026 11.5003C6.9142 11.5001 7.25005 11.1642 7.25026 10.7503V6.91628C7.25011 6.50231 6.91423 6.16645 6.50026 6.16628ZM9.00026 4.83327C8.5861 4.83327 8.25034 5.16913 8.25026 5.58327V10.7503C8.25046 11.1643 8.58618 11.5003 9.00026 11.5003C9.4142 11.5001 9.75007 11.1642 9.75026 10.7503V5.58327C9.75019 5.16924 9.41427 4.83346 9.00026 4.83327ZM11.5003 3.50026C11.0861 3.50026 10.7503 3.83606 10.7503 4.25026V10.7503C10.7505 11.1643 11.0862 11.5003 11.5003 11.5003C11.9142 11.5001 12.2501 11.1642 12.2503 10.7503V4.25026C12.2503 3.83618 11.9143 3.50046 11.5003 3.50026Z" fill="#008500"/>
</svg>
