<svg width="160" height="28" viewBox="0 0 160 28" fill="none" xmlns="http://www.w3.org/2000/svg">
<path d="M45.71 6.78919H42.4141V21.2095H56.4875V18.4622H45.71V6.78919Z" fill="#131313"/>
<path d="M62.926 12.6059V9.53645H75.0318V6.78919H59.6301V21.2095H75.0318V18.4622H62.926V15.3532H74.6549V12.6059H62.926Z" fill="#131313"/>
<path d="M87.6321 6.63092C84.2643 6.63092 81.7913 7.26663 80.1569 8.50429C78.513 9.74922 77.746 11.581 77.746 13.9004V14.0983C77.746 16.4084 78.5234 18.239 80.138 19.4859C81.7444 20.7263 84.1523 21.3677 87.3722 21.3677H88.052C90.8491 21.3677 93.6298 20.9681 96.3584 20.382V12.6059H87.1439V15.3532H93.3425V18.081C91.7529 18.3992 90.0187 18.6205 88.212 18.6205H87.5122C85.2915 18.6205 83.7202 18.1978 82.7075 17.4321C81.7043 16.6736 81.2219 15.5573 81.2219 14.0983V13.9004C81.2219 12.4393 81.6857 11.3243 82.6921 10.5668C83.7091 9.8015 85.3097 9.37817 87.6321 9.37817H88.332C90.9901 9.37817 93.8204 9.89938 96.3584 10.6487V7.76329C93.8132 7.07277 90.9766 6.63092 88.332 6.63092H87.6321Z" fill="#131313"/>
<path d="M103.337 12.6059V9.53645H115.443V6.78919H100.041V21.2095H115.443V18.4622H103.337V15.3532H115.066V12.6059H103.337Z" fill="#131313"/>
<path fill-rule="evenodd" clip-rule="evenodd" d="M156.329 8.73305C154.962 7.48303 152.864 6.78919 149.938 6.78919H140.312V21.2095H149.938C152.895 21.2095 154.993 20.5005 156.353 19.2374C157.714 17.9724 158.304 16.1798 158.304 14.0785V13.8806C158.304 11.7683 157.699 9.98539 156.329 8.73305ZM143.608 9.53645V18.4622H149.878C151.72 18.4622 152.944 18.0234 153.707 17.2769C154.471 16.531 154.809 15.4454 154.809 14.0785V13.8806C154.809 12.5341 154.471 11.4584 153.708 10.7172C152.944 9.97525 151.72 9.53645 149.878 9.53645H143.608Z" fill="#131313"/>
<path d="M122.24 6.78919H118.637V21.2095H121.873V10.7169L132.926 21.2095H136.529V6.78919H133.293V17.2818L122.24 6.78919Z" fill="#131313"/>
<path d="M14.3693 28C19.0399 28 23.1698 25.8727 25.7948 22.5381C25.8899 22.4172 25.9375 22.3568 25.9577 22.2828C25.9747 22.2206 25.9747 22.1453 25.9577 22.0831C25.9375 22.0091 25.8899 21.9486 25.7948 21.8277C23.1699 18.4917 19.0407 16.3442 14.3916 16.3442C9.74252 16.3442 5.6133 18.4917 2.98838 21.8277C2.89327 21.9486 2.84571 22.0091 2.82548 22.0831C2.8085 22.1453 2.8085 22.2206 2.8255 22.2828C2.84575 22.3568 2.8933 22.4172 2.98841 22.5381C5.61332 25.8727 9.74178 28 14.3693 28ZM14.3693 0C6.43834 0 0 6.27286 0 14C0 16.4742 0.65246 18.775 1.80837 20.7936C1.87841 20.9159 1.91342 20.977 1.96411 21.0027C2.00774 21.0247 2.06057 21.0289 2.10713 21.014C2.16124 20.9968 2.20643 20.9408 2.29682 20.8287L13.92 6.42324C14.0814 6.22325 14.162 6.12325 14.2593 6.08699C14.3446 6.0552 14.4386 6.0552 14.5239 6.08699C14.6212 6.12325 14.7018 6.22325 14.8632 6.42323L26.4864 20.8287C26.5768 20.9408 26.622 20.9968 26.6761 21.014C26.7227 21.0289 26.7755 21.0247 26.8191 21.0027C26.8698 20.977 26.9048 20.9159 26.9748 20.7936C28.1308 18.775 28.7832 16.4742 28.7832 14C28.7832 6.27286 22.3449 0 14.3693 0Z" fill="#131313"/>
</svg>
