<svg preserveAspectRatio="xMidYMid meet" viewBox="0 0 115.89 14.7368" fill="none" xmlns="http://www.w3.org/2000/svg">
<g id="Logotype">
<path d="M3.2959 0.158278H0V14.5785H14.0735V11.8313H3.2959V0.158278Z" fill="#131313"/>
<path d="M20.512 5.975V2.90554H32.6177V0.158278H17.2161V14.5785H32.6177V11.8313H20.512V8.72226H32.2408V5.975H20.512Z" fill="#131313"/>
<path d="M45.218 0C41.8502 0 39.3772 0.635711 37.7429 1.87337C36.099 3.1183 35.332 4.95013 35.332 7.26949V7.46734C35.332 9.77749 36.1093 11.6081 37.724 12.855C39.3303 14.0954 41.7382 14.7368 44.9581 14.7368H45.6379C48.435 14.7368 51.2157 14.3372 53.9444 13.751V5.975H44.7299V8.72226H50.9284V11.4501C49.3388 11.7683 47.6047 11.9896 45.7979 11.9896H45.0981C42.8774 11.9896 41.3061 11.5669 40.2934 10.8012C39.2902 10.0427 38.8078 8.92637 38.8078 7.46734V7.26949C38.8078 5.80834 39.2716 4.69335 40.2781 3.93592C41.2951 3.17058 42.8957 2.74725 45.218 2.74725H45.9179C48.576 2.74725 51.4063 3.26847 53.9444 4.01782V1.13238C51.3992 0.441856 48.5626 0 45.9179 0H45.218Z" fill="#131313"/>
<path d="M60.9228 5.975V2.90554H73.0285V0.158278H57.6269V14.5785H73.0285V11.8313H60.9228V8.72226H72.6517V5.975H60.9228Z" fill="#131313"/>
<path fill-rule="evenodd" clip-rule="evenodd" d="M113.915 2.10213C112.548 0.85211 110.45 0.158278 107.524 0.158278H97.8978V14.5785H107.524C110.481 14.5785 112.579 13.8696 113.939 12.6065C115.3 11.3415 115.89 9.54889 115.89 7.44755V7.2497C115.89 5.13737 115.285 3.35447 113.915 2.10213ZM101.194 2.90554V11.8313H107.464C109.306 11.8313 110.529 11.3925 111.293 10.646C112.057 9.9001 112.394 8.81446 112.394 7.44755V7.2497C112.394 5.90323 112.057 4.82746 111.294 4.08628C110.53 3.34434 109.306 2.90554 107.464 2.90554H101.194Z" fill="#131313"/>
<path d="M79.8259 0.158278H76.2227V14.5785H79.4586V4.08594L90.5121 14.5785H94.1153V0.158278H90.8794V10.6509L79.8259 0.158278Z" fill="#131313"/>
</g>
</svg>
