<svg preserveAspectRatio="xMidYMid meet" viewBox="0 0 28.7832 28" fill="none" xmlns="http://www.w3.org/2000/svg">
<path id="Mark" d="M14.3693 28C19.0399 28 23.1698 25.8727 25.7948 22.5381C25.8899 22.4172 25.9375 22.3568 25.9577 22.2828C25.9747 22.2206 25.9747 22.1453 25.9577 22.0831C25.9375 22.0091 25.8899 21.9486 25.7948 21.8277C23.1699 18.4917 19.0407 16.3442 14.3916 16.3442C9.74252 16.3442 5.6133 18.4917 2.98838 21.8277C2.89327 21.9486 2.84571 22.0091 2.82548 22.0831C2.8085 22.1453 2.8085 22.2206 2.8255 22.2828C2.84575 22.3568 2.8933 22.4172 2.98841 22.5381C5.61332 25.8727 9.74178 28 14.3693 28ZM14.3693 0C6.43834 0 0 6.27286 0 14C0 16.4742 0.65246 18.775 1.80837 20.7936C1.87841 20.9159 1.91342 20.977 1.96411 21.0027C2.00774 21.0247 2.06057 21.0289 2.10713 21.014C2.16124 20.9968 2.20643 20.9408 2.29682 20.8287L13.92 6.42324C14.0814 6.22325 14.162 6.12325 14.2593 6.08699C14.3446 6.0552 14.4386 6.0552 14.5239 6.08699C14.6212 6.12325 14.7018 6.22325 14.8632 6.42324L26.4864 20.8287C26.5768 20.9408 26.622 20.9968 26.6761 21.014C26.7227 21.0289 26.7755 21.0247 26.8191 21.0027C26.8698 20.977 26.9048 20.9159 26.9748 20.7936C28.1308 18.775 28.7832 16.4742 28.7832 14C28.7832 6.27286 22.3449 0 14.3693 0Z" fill="#131313"/>
</svg>
