<svg preserveAspectRatio="xMidYMid meet" viewBox="0 0 40 40" fill="none" xmlns="http://www.w3.org/2000/svg">
<g id="Menu">
<path id="Union" d="M29.417 24.8505C29.739 24.8507 30 25.1115 30 25.4335C29.9999 25.7555 29.739 26.0164 29.417 26.0166H10.583C10.261 26.0164 10.0001 25.7555 10 25.4335C10 25.1115 10.261 24.8507 10.583 24.8505H29.417ZM29.417 19.5166C29.7388 19.5167 29.9997 19.7777 30 20.0996C30 20.4216 29.739 20.6834 29.417 20.6835H10.583C10.261 20.6834 10 20.4216 10 20.0996C10.0003 19.7777 10.2612 19.5167 10.583 19.5166H29.417ZM29.417 14.1835C29.739 14.1837 29.9999 14.4446 30 14.7666C30 15.0886 29.739 15.3494 29.417 15.3496H10.583C10.261 15.3494 10 15.0886 10 14.7666C10.0001 14.4446 10.261 14.1837 10.583 14.1835H29.417Z" fill="#383737"/>
</g>
</svg>
