<svg preserveAspectRatio="xMidYMid meet" viewBox="0 0 81.9454 16.5" fill="none" xmlns="http://www.w3.org/2000/svg">
<g id="Group">
<path id="Vector" d="M2.02764 10.9048V15.5752C2.02764 15.8632 2.27124 15.9832 2.34684 16.0096C2.44006 16.0479 2.54246 16.0582 2.64141 16.039C2.74036 16.0198 2.83153 15.972 2.90364 15.9016L6.43764 12.5056C6.73764 12.2164 7.02924 11.9128 7.24644 11.5576C7.34964 11.3896 7.39284 11.296 7.39284 11.296C7.60884 10.8556 7.60884 10.432 7.39764 10.0096C7.08444 9.3808 6.28404 8.74 5.07804 8.1328L3.01764 9.2824C2.40564 9.6304 2.02764 10.2424 2.02764 10.9048Z" fill="#6C6C6C"/>
<path id="Vector_2" d="M4.76837e-07 0.516754V5.41515C4.76837e-07 6.02715 0.410401 6.57075 0.994801 6.74475C2.9844 7.31955 6.4512 8.55675 7.2888 10.3736C7.3968 10.6124 7.4628 10.8452 7.4844 11.09C8.05184 10.0652 8.29338 8.89188 8.1768 7.72635C8.09661 6.89638 7.83755 6.09363 7.41744 5.37335C6.99733 4.65307 6.42615 4.03237 5.7432 3.55395L0.805201 0.0979541C0.72113 0.0348955 0.618689 0.00116992 0.5136 0.0019542C0.428626 -0.000361762 0.344561 0.0199298 0.270001 0.0607542C0.188802 0.106225 0.121064 0.172349 0.0736486 0.252427C0.0262336 0.332506 0.000826249 0.423695 4.76837e-07 0.516754Z" fill="#6C6C6C"/>
<path id="Vector_3" d="M15.1695 10.9048V15.5764C15.1695 15.8644 14.9259 15.9832 14.8503 16.0096C14.7571 16.0479 14.6547 16.0582 14.5557 16.039C14.4568 16.0198 14.3656 15.972 14.2935 15.9016L10.6779 12.4264C10.4265 12.1953 10.2026 11.936 10.0107 11.6536C9.86428 11.4256 9.80548 11.296 9.80548 11.296C9.69909 11.0985 9.64289 10.8779 9.64184 10.6535C9.6408 10.4292 9.69493 10.2081 9.79948 10.0096C10.1139 9.3808 10.9131 8.74 12.1191 8.1328L14.1795 9.2824C14.7963 9.6304 15.1695 10.2424 15.1695 10.9048Z" fill="#6C6C6C"/>
<path id="Vector_4" d="M17.2078 0.514805V5.41441C17.2078 6.02641 16.7962 6.57001 16.2118 6.74281C14.2222 7.31881 10.7554 8.55481 9.91781 10.3728C9.80981 10.6116 9.74381 10.8444 9.72341 11.0892C9.15597 10.0645 8.91443 8.89113 9.03101 7.72561C9.11119 6.89563 9.37026 6.09288 9.79037 5.3726C10.2105 4.65232 10.7817 4.03162 11.4646 3.55321L16.4014 0.0972054C16.4853 0.0337184 16.5878 -0.000433147 16.693 5.6058e-06C16.7794 5.6058e-06 16.8562 0.0168056 16.9366 0.0600056C17.018 0.105322 17.086 0.171379 17.1336 0.251469C17.1813 0.331558 17.2069 0.422827 17.2078 0.516006M25.5814 1.57441H27.4714L31.8514 11.706H31.9822L36.3622 1.57441H38.2198V13.2552H36.841V3.95881H36.7114L32.695 13.2552H31.105L27.091 3.95881H26.9602V13.2552H25.5814V1.57441ZM39.7474 9.12721C39.7474 6.33601 41.443 4.79521 43.957 4.79521C46.465 4.79521 48.1678 6.33601 48.1678 9.12721C48.1678 11.9088 46.4638 13.4496 43.957 13.4496C41.443 13.4496 39.7474 11.91 39.7474 9.12721ZM41.191 9.12601C41.191 11.1696 42.3022 12.2808 43.957 12.2808C45.6046 12.2808 46.7158 11.1696 46.7158 9.12481C46.7158 7.07281 45.6046 5.96881 43.957 5.96881C42.3022 5.96881 41.191 7.07281 41.191 9.12481M49.531 4.98961H50.9086V5.97841H51.0394C51.3226 5.39521 51.8422 4.95721 53.083 4.95721H54.235V6.18961H53.1154C51.5674 6.18961 50.9578 7.04161 50.9578 8.72161V13.2552H49.5298L49.531 4.98961ZM55.3282 16.5V4.98961H56.7238V6.13321H56.8534C57.4702 5.17561 58.4758 4.80241 59.6446 4.80241C61.7926 4.80241 63.4402 6.26281 63.4402 9.12601C63.4402 11.982 61.7938 13.4412 59.6446 13.4412C58.4998 13.4412 57.5026 13.0764 56.8858 12.1596H56.7562V16.5H55.3282ZM56.7082 9.12601C56.7082 11.13 57.7786 12.258 59.3518 12.258C60.9334 12.258 62.0038 11.13 62.0038 9.12601C62.0038 7.11481 60.9334 5.98681 59.3518 5.98681C57.7786 5.98681 56.7082 7.11481 56.7082 9.12601ZM64.8118 1.57441H66.2398V6.01081H66.3682C66.961 5.13481 67.9426 4.80241 69.103 4.80241C71.0254 4.80241 72.2422 5.77561 72.2422 7.79641V13.2552H70.8142V7.93441C70.8142 6.58681 70.0762 5.99521 68.7862 5.99521C67.375 5.99521 66.2386 6.83041 66.2386 8.64001V13.2552H64.8106L64.8118 1.57441ZM73.525 9.12721C73.525 6.33601 75.2206 4.79521 77.7358 4.79521C80.2426 4.79521 81.9454 6.33601 81.9454 9.12721C81.9454 11.9088 80.2414 13.4496 77.7358 13.4496C75.2206 13.4496 73.525 11.91 73.525 9.12721ZM74.9698 9.12601C74.9698 11.1696 76.081 12.2808 77.7358 12.2808C79.3822 12.2808 80.4934 11.1696 80.4934 9.12481C80.4934 7.07281 79.3822 5.96881 77.7358 5.96881C76.0798 5.96881 74.9698 7.07281 74.9698 9.12481" fill="#6C6C6C"/>
</g>
</svg>
