<svg preserveAspectRatio="xMidYMid meet" viewBox="0 0 18.5714 16.5818" fill="none" xmlns="http://www.w3.org/2000/svg">
<path id="Vector" d="M15.3278 0V1.93263H18.4363C18.4662 1.95423 18.4681 2.01692 18.4596 2.05135C18.4566 2.06353 18.4312 2.06158 18.4285 2.0736C18.365 2.36057 18.3224 2.7177 18.27 3.01344C18.2025 3.39347 18.1428 3.80208 18.0772 4.16457C18.0582 4.26981 18.0289 4.37586 18.0149 4.4824H17.2358V14.0481C17.3326 14.0358 17.4091 14.0603 17.4963 14.0988C17.7394 14.2066 17.8917 14.4595 17.9182 14.7234C17.9364 14.9028 17.9144 15.1174 17.9106 15.2991C17.926 15.3212 18.0763 15.3162 18.1296 15.3327C18.151 15.3394 18.2544 15.4016 18.2838 15.4219C18.45 15.5362 18.4727 15.6411 18.5446 15.8141C18.5479 15.8219 18.5714 15.8169 18.5714 15.8183V16.5816H12.3147C12.3095 16.5816 12.2905 16.5602 12.275 16.5654V15.9239C12.275 15.9216 12.2994 15.9059 12.3033 15.8878C12.3217 15.7988 12.3196 15.7623 12.3642 15.6739C12.4762 15.4514 12.7111 15.2884 12.9588 15.315C12.9804 15.0484 12.9097 14.7271 13.0057 14.4778C13.0984 14.2371 13.383 14.0208 13.6424 14.0481C13.6381 14.0181 13.6266 13.9909 13.6257 13.9598C13.5786 12.4195 13.6721 10.8701 13.6271 9.32973C13.5732 7.4835 12.5748 5.95087 10.8885 5.26049C8.15187 4.14021 5.18362 6.06862 4.94432 9.03756L4.9448 14.0484C4.95164 14.0554 5.06262 14.0418 5.09267 14.0489C5.10062 14.0509 5.21081 14.1059 5.23434 14.1181C5.68941 14.3555 5.62135 14.8491 5.60386 15.2993C5.62151 15.3243 5.78052 15.3124 5.83871 15.3329C5.87687 15.3464 6.00344 15.4339 6.04239 15.4692C6.14209 15.5595 6.28074 15.7707 6.28074 15.9078V16.5574L6.25689 16.5818H0V15.8185C0 15.8167 0.0255993 15.826 0.0314824 15.807C0.0384785 15.7844 0.0308464 15.7519 0.0422945 15.7236C0.104146 15.5723 0.295426 15.3787 0.441866 15.3329C0.495132 15.3163 0.64523 15.3214 0.660812 15.2993L0.652226 14.6604C0.703584 14.6371 0.677666 14.5806 0.694521 14.5222C0.771159 14.2565 1.06309 14.0283 1.33562 14.0483V4.4824H0.564457L0.543151 4.45544C0.5449 4.36011 0.511509 4.27176 0.494337 4.18049C0.461901 4.00769 0.443297 3.82482 0.411815 3.64763C0.320548 3.13297 0.221172 2.63049 0.142148 2.10413C0.134993 2.05654 0.0693248 1.98931 0.134993 1.93279H3.21963L3.23998 1.90843C3.24046 1.90177 3.22758 1.89625 3.22758 1.89219V0.0243609L3.25143 0H15.3276H15.3278Z" fill="#EDEDED"/>
</svg>
