<svg preserveAspectRatio="xMidYMid meet" viewBox="0 0 17.4482 17.2758" fill="none" xmlns="http://www.w3.org/2000/svg">
<path id="Vector" d="M14.8667 14.7201H12.2814V10.7114C12.2814 9.75542 12.2642 8.52484 10.9368 8.52484C9.59032 8.52484 9.3843 9.56637 9.3843 10.6418V14.7199H6.79901V6.47619H9.28088V7.60277H9.31563C9.56401 7.18228 9.92292 6.83636 10.3541 6.60187C10.7854 6.36737 11.2727 6.25307 11.7644 6.27114C14.3847 6.27114 14.8678 7.97768 14.8678 10.1978L14.8667 14.7201ZM3.88196 5.34933C3.58523 5.34939 3.29515 5.26232 3.0484 5.09913C2.80165 4.93595 2.60933 4.70398 2.49573 4.43256C2.38213 4.16114 2.35235 3.86246 2.41019 3.57429C2.46803 3.28613 2.61087 3.02141 2.82065 2.81362C3.03043 2.60584 3.29773 2.46431 3.58874 2.40694C3.87975 2.34957 4.18141 2.37893 4.45557 2.49132C4.72973 2.6037 4.96407 2.79406 5.12897 3.03832C5.29386 3.28258 5.38191 3.56977 5.38196 3.86357C5.382 4.05865 5.34322 4.25182 5.26786 4.43207C5.19249 4.61231 5.08203 4.77609 4.94274 4.91405C4.80345 5.05202 4.63807 5.16147 4.45606 5.23615C4.27405 5.31084 4.07898 5.3493 3.88196 5.34933ZM5.17459 14.7201H2.58662V6.47619H5.17459V14.7201ZM16.1556 0.00117703H1.28753C0.950063 -0.00259373 0.624877 0.126447 0.383454 0.359943C0.14203 0.593439 0.00411855 0.912286 0 1.24642V16.0291C0.00397759 16.3634 0.141808 16.6825 0.383224 16.9162C0.624639 17.15 0.949896 17.2792 1.28753 17.2757H16.1556C16.4939 17.2799 16.82 17.151 17.0624 16.9172C17.3048 16.6835 17.4435 16.3641 17.4482 16.0291V1.24536C17.4434 0.910557 17.3045 0.591347 17.0622 0.357857C16.8198 0.124366 16.4937 -0.00430558 16.1556 0.000110005" fill="#EDEDED"/>
</svg>
